<svg width="23" height="23" viewBox="0 0 23 23" fill="none" xmlns="http://www.w3.org/2000/svg">
<path d="M20.125 8.26562H2.875C2.47825 8.26562 2.15625 7.94362 2.15625 7.54688C2.15625 7.15012 2.47825 6.82812 2.875 6.82812H20.125C20.5217 6.82812 20.8438 7.15012 20.8438 7.54688C20.8438 7.94362 20.5217 8.26562 20.125 8.26562Z" fill="white"/>
<path d="M2.87465 8.26565C2.71724 8.26565 2.55876 8.21426 2.42615 8.10824C2.11637 7.86027 2.06605 7.40818 2.31402 7.09804L5.18902 3.50429C5.43699 3.19451 5.88909 3.14383 6.19923 3.39216C6.50901 3.64013 6.55932 4.09222 6.31135 4.40237L3.43635 7.99612C3.2944 8.17329 3.08524 8.26565 2.87465 8.26565Z" fill="white"/>
<path d="M8.62536 8.26565C8.4144 8.26565 8.20561 8.17329 8.06365 7.99611L5.18866 4.40237C4.94069 4.09222 4.991 3.64013 5.30078 3.39216C5.61056 3.14383 6.06302 3.19451 6.31098 3.50429L9.18598 7.09804C9.43395 7.40818 9.38364 7.86027 9.07386 8.10824C8.94161 8.21426 8.78276 8.26565 8.62536 8.26565Z" fill="white"/>
<path d="M8.62465 8.26565C8.46724 8.26565 8.30876 8.21426 8.17615 8.10824C7.86637 7.86027 7.81605 7.40818 8.06402 7.09804L10.939 3.50429C11.1866 3.19451 11.6394 3.14383 11.9492 3.39216C12.259 3.64013 12.3093 4.09222 12.0613 4.40237L9.18635 7.99611C9.0444 8.17329 8.83524 8.26565 8.62465 8.26565Z" fill="white"/>
<path d="M14.3754 8.26565C14.1644 8.26565 13.9556 8.17329 13.8137 7.99611L10.9387 4.40237C10.6907 4.09222 10.741 3.64013 11.0508 3.39216C11.3609 3.14383 11.813 3.19451 12.061 3.50429L14.936 7.09804C15.184 7.40818 15.1336 7.86027 14.8239 8.10824C14.6916 8.21426 14.5328 8.26565 14.3754 8.26565Z" fill="white"/>
<path d="M14.3746 8.26565C14.2172 8.26565 14.0588 8.21426 13.9261 8.10824C13.6164 7.86027 13.5661 7.40818 13.814 7.09804L16.689 3.50429C16.9366 3.19451 17.3891 3.14383 17.6992 3.39216C18.009 3.64013 18.0593 4.09222 17.8114 4.40237L14.9364 7.99611C14.7944 8.17329 14.5852 8.26565 14.3746 8.26565Z" fill="white"/>
<path d="M20.1254 8.26565C19.9144 8.26565 19.7056 8.17329 19.5637 7.99611L16.6887 4.40237C16.4407 4.09222 16.491 3.64013 16.8008 3.39216C17.1109 3.14383 17.563 3.19451 17.811 3.50429L20.686 7.09804C20.934 7.40818 20.8836 7.86027 20.5739 8.10824C20.4416 8.21426 20.2828 8.26565 20.1254 8.26565Z" fill="white"/>
<path d="M17.25 4.67188H5.75C5.35325 4.67188 5.03125 4.34987 5.03125 3.95312C5.03125 3.55637 5.35325 3.23438 5.75 3.23438H17.25C17.6468 3.23438 17.9688 3.55637 17.9688 3.95312C17.9688 4.34987 17.6468 4.67188 17.25 4.67188Z" fill="white"/>
<path d="M11.4996 19.7656C11.1776 19.7656 10.8848 19.5478 10.8028 19.2208L7.92782 7.72078C7.83151 7.33589 8.06582 6.94561 8.45107 6.8493C8.83524 6.75334 9.22624 6.98694 9.32256 7.37255L12.1976 18.8725C12.2939 19.2574 12.0596 19.6477 11.6743 19.744C11.6157 19.7588 11.5571 19.7656 11.4996 19.7656Z" fill="white"/>
<path d="M11.5004 19.7656C11.4425 19.7656 11.3839 19.7584 11.3257 19.744C10.9405 19.6477 10.7065 19.2574 10.8025 18.8725L13.6775 7.37253C13.7738 6.98728 14.1648 6.75369 14.5489 6.84928C14.9342 6.94559 15.1681 7.33587 15.0722 7.72076L12.1972 19.2208C12.1156 19.5478 11.8224 19.7656 11.5004 19.7656Z" fill="white"/>
<path d="M11.4997 19.7656C11.3498 19.7656 11.1981 19.7188 11.0688 19.6218C10.7514 19.3836 10.6867 18.9329 10.925 18.6156L19.55 7.11557C19.7886 6.79825 20.2389 6.73428 20.5563 6.97182C20.8736 7.21009 20.9383 7.66075 20.7 7.97807L12.075 19.4781C11.9338 19.6664 11.7178 19.7656 11.4997 19.7656Z" fill="white"/>
<path d="M11.5004 19.7656C11.2819 19.7656 11.0662 19.6664 10.9246 19.4781L2.29965 7.97807C2.06138 7.66039 2.12607 7.20973 2.4434 6.97182C2.76108 6.73428 3.21174 6.79825 3.44965 7.11557L12.0746 18.6156C12.3129 18.9333 12.2482 19.3839 11.9309 19.6218C11.8019 19.7188 11.6506 19.7656 11.5004 19.7656Z" fill="white"/>
</svg>
