<svg width="247" height="48" viewBox="0 0 247 48" fill="none" xmlns="http://www.w3.org/2000/svg">
<path d="M15.3316 15.6445H20.8908C23.4322 15.6445 24.7029 16.9279 25.1794 17.5696L19.6202 23.1843L15.3316 15.6445Z" fill="white"/>
<path d="M4.84839 20.778V25.5906L8.02511 22.3822L5.00722 33.6116H10.4077L10.6062 32.8095L14.8551 15.6445H10.4077L4.84839 20.778Z" fill="white"/>
<path d="M10.4077 33.6116H17.2376L22.7969 28.6386C23.4322 30.2962 25.37 33.6116 28.0385 33.6116H34.5508L28.515 23.1843L36.7745 15.6445H28.8327L10.6062 32.8095L10.4077 33.6116Z" fill="white"/>
<path fill-rule="evenodd" clip-rule="evenodd" d="M33.7339 30.0182L37.241 15.6445H46.9654C53.2464 15.6445 52.9595 22.1255 49.7393 24.1468C53.1826 26.3285 49.9624 33.6116 42.5974 33.6116H35.7744L33.7339 30.0182ZM45.7539 19.8796H41.5134L40.8438 22.4463H44.893C47.3161 22.4463 48.0176 19.8796 45.7539 19.8796ZM39.9192 26.2323L39.1859 29.3765H43.6814C46.6147 29.3765 47.4118 26.2323 44.3829 26.2323H39.9192Z" fill="#0075FF"/>
<path d="M51.2864 33.6116L55.597 15.6445H69.5299L68.529 19.8155H59.9077L59.2691 22.3822H67.9405L66.9325 26.5531H58.3112L57.5057 29.3962H67.9405L66.9325 33.6116H51.2864Z" fill="#0075FF"/>
<path d="M77.2774 33.6165H72.0029L75.3398 19.892H70.173L71.1956 15.6401H87.1267L86.1041 19.7844H80.6682L77.2774 33.6165Z" fill="#0075FF"/>
<path d="M95.6737 33.5394C94.2278 33.5394 92.9527 33.3147 91.8483 32.8651C90.7439 32.4155 89.8425 31.7827 89.1439 30.9668C88.4669 30.1342 88.0228 29.1684 87.8115 28.0695C87.6003 26.9705 87.6669 25.7632 88.0115 24.4478C88.3561 23.1323 88.922 21.9251 89.7091 20.8261C90.4962 19.7271 91.4442 18.7696 92.553 17.9537C93.6834 17.1211 94.9186 16.4801 96.2585 16.0305C97.5984 15.5809 98.9914 15.3561 100.437 15.3561C101.9 15.3561 103.176 15.5809 104.263 16.0305C105.367 16.4801 106.26 17.1128 106.941 17.9287C107.623 18.7447 108.067 19.7104 108.274 20.8261C108.502 21.9251 108.444 23.1323 108.099 24.4478C107.755 25.7632 107.178 26.9788 106.37 28.0944C105.582 29.1934 104.635 30.1509 103.526 30.9668C102.417 31.7827 101.192 32.4155 99.8525 32.8651C98.5298 33.3147 97.1369 33.5394 95.6737 33.5394ZM100.572 37.4109C99.7977 37.4109 99.0966 37.3276 98.4689 37.1611C97.8368 37.0113 97.2395 36.7615 96.677 36.4118C96.1317 36.0621 95.5847 35.5876 95.036 34.9881C94.5045 34.3887 93.9241 33.6477 93.2946 32.7652L98.9796 31.4663C99.2485 32.0824 99.5093 32.5653 99.762 32.915C100.015 33.2647 100.285 33.5145 100.573 33.6643C100.878 33.8142 101.22 33.8891 101.598 33.8891C102.597 33.8891 103.616 33.4812 104.656 32.6652L106.209 35.2129C104.568 36.6782 102.69 37.4109 100.572 37.4109ZM96.7469 29.4432C97.4354 29.4432 98.1028 29.3266 98.7491 29.0935C99.4127 28.8604 100.016 28.5274 100.56 28.0944C101.125 27.6448 101.609 27.112 102.012 26.4959C102.431 25.8798 102.739 25.1971 102.935 24.4478C103.136 23.6818 103.186 22.9991 103.085 22.3996C103.005 21.7835 102.798 21.259 102.464 20.8261C102.152 20.3765 101.725 20.0351 101.183 19.802C100.659 19.5689 100.053 19.4523 99.3642 19.4523C98.6756 19.4523 97.9996 19.5689 97.3361 19.802C96.6897 20.0351 96.0839 20.3765 95.5186 20.8261C94.9748 21.259 94.4932 21.7835 94.0736 22.3996C93.6755 22.9991 93.3762 23.6818 93.1755 24.4478C92.9792 25.1971 92.9209 25.8798 93.0005 26.4959C93.0973 27.112 93.3019 27.6448 93.6145 28.0944C93.9486 28.5274 94.3778 28.8604 94.902 29.0935C95.4434 29.3266 96.0583 29.4432 96.7469 29.4432ZM112.349 33.1898L111.068 15.7058H116.335L117.301 30.8419H114.642L123.797 15.7058H128.496L129.437 30.8419H126.881L135.932 15.7058H140.812L130.371 33.1898H124.897L124.084 20.3265H125.556L117.822 33.1898H112.349ZM138.064 33.1898L142.644 15.7058H147.757L143.176 33.1898H138.064ZM146.814 33.1898L151.394 15.7058H155.602L162.52 27.3451H160.532L163.581 15.7058H168.59L164.01 33.1898H159.801L152.884 21.5504H154.872L151.823 33.1898H146.814ZM167.616 33.1898L172.196 15.7058H176.405L183.322 27.3451H181.334L184.383 15.7058H189.392L184.812 33.1898H180.603L173.686 21.5504H175.674L172.625 33.1898H167.616ZM195.924 22.4746H204.316L203.347 26.1712H194.956L195.924 22.4746ZM194.48 29.3683H203.93L202.929 33.1898H188.418L192.998 15.7058H207.173L206.172 19.5273H197.058L194.48 29.3683ZM205.766 33.1898L210.346 15.7058H218.609C220.261 15.7058 221.613 15.9639 222.666 16.4801C223.736 16.9963 224.469 17.7456 224.866 18.728C225.267 19.6938 225.293 20.8427 224.944 22.1748C224.599 23.4903 223.973 24.6309 223.066 25.5967C222.163 26.5458 221.042 27.2785 219.702 27.7947C218.383 28.2942 216.898 28.544 215.245 28.544H209.823L212.638 26.4709L210.878 33.1898H205.766ZM216.946 33.1898L214.122 26.8206H219.57L222.42 33.1898H216.946ZM212.501 26.9954L210.824 24.7225H215.937C217.004 24.7225 217.854 24.4977 218.489 24.0481C219.14 23.5985 219.57 22.9741 219.78 22.1748C219.994 21.3589 219.893 20.7262 219.477 20.2766C219.078 19.827 218.345 19.6022 217.278 19.6022H212.166L215.033 17.3293L212.501 26.9954ZM231.139 33.5394C229.658 33.5394 228.276 33.3646 226.99 33.0149C225.726 32.6486 224.738 32.1824 224.026 31.6162L226.659 27.9695C227.337 28.4691 228.158 28.8854 229.121 29.2184C230.105 29.5348 231.122 29.693 232.172 29.693C232.878 29.693 233.461 29.6347 233.922 29.5181C234.387 29.3849 234.741 29.2184 234.983 29.0186C235.246 28.8021 235.415 28.5523 235.489 28.2693C235.593 27.8696 235.487 27.5533 235.169 27.3201C234.852 27.087 234.411 26.8955 233.848 26.7457C233.285 26.5958 232.653 26.4459 231.952 26.2961C231.268 26.1462 230.587 25.9547 229.908 25.7216C229.246 25.4885 228.662 25.1888 228.155 24.8224C227.653 24.4394 227.291 23.9482 227.069 23.3488C226.852 22.7327 226.866 21.9584 227.11 21.0259C227.385 19.9769 227.926 19.0277 228.734 18.1785C229.559 17.3293 230.633 16.6466 231.956 16.1304C233.279 15.6142 234.826 15.3561 236.599 15.3561C237.787 15.3561 238.914 15.4893 239.98 15.7557C241.068 16.0055 241.994 16.3802 242.759 16.8797L240.222 20.5513C239.479 20.1017 238.714 19.7687 237.927 19.5522C237.145 19.3191 236.358 19.2026 235.566 19.2026C234.86 19.2026 234.273 19.2775 233.803 19.4274C233.338 19.5606 232.98 19.7437 232.729 19.9769C232.479 20.21 232.315 20.4764 232.236 20.7761C232.136 21.1591 232.236 21.4672 232.536 21.7003C232.858 21.9168 233.301 22.0999 233.864 22.2498C234.449 22.383 235.083 22.5245 235.767 22.6744C236.468 22.8243 237.149 23.0157 237.811 23.2489C238.494 23.4653 239.087 23.7651 239.589 24.148C240.096 24.5144 240.449 25.0056 240.649 25.6217C240.871 26.2211 240.862 26.9788 240.622 27.8946C240.356 28.9103 239.808 29.8512 238.979 30.717C238.171 31.5663 237.106 32.249 235.783 32.7652C234.477 33.2813 232.929 33.5394 231.139 33.5394Z" fill="white"/>
</svg>
