<svg width="23" height="23" viewBox="0 0 23 23" fill="none" xmlns="http://www.w3.org/2000/svg">
<path d="M11.5 15.1919C10.3108 15.1919 9.34375 14.2248 9.34375 13.0356C9.34375 11.8465 10.3108 10.8794 11.5 10.8794C12.6892 10.8794 13.6563 11.8465 13.6563 13.0356C13.6563 14.2248 12.6892 15.1919 11.5 15.1919ZM11.5 12.3169C11.1104 12.3169 10.7813 12.6461 10.7813 13.0356C10.7813 13.4252 11.1104 13.7544 11.5 13.7544C11.8896 13.7544 12.2188 13.4252 12.2188 13.0356C12.2188 12.6461 11.8896 12.3169 11.5 12.3169Z" fill="white"/>
<path d="M4.44259 9.8667C4.04584 9.8667 3.7242 9.5447 3.7242 9.14795C3.7242 8.35517 4.36892 7.71045 5.1617 7.71045C5.55845 7.71045 5.88045 8.03245 5.88045 8.4292C5.88045 8.82595 5.55845 9.14795 5.1617 9.14795H5.16098C5.16098 9.54506 4.8397 9.8667 4.44259 9.8667Z" fill="white"/>
<path d="M18.5571 9.8667C18.1603 9.8667 17.8383 9.5447 17.8383 9.14795V9.14723C17.4416 9.14723 17.1196 8.82595 17.1196 8.42884C17.1196 8.03173 17.4416 7.71045 17.8383 7.71045C18.6311 7.71045 19.2758 8.35517 19.2758 9.14795C19.2758 9.54506 18.9538 9.8667 18.5571 9.8667Z" fill="white"/>
<path d="M17.8383 20.8438C17.4416 20.8438 17.1196 20.5217 17.1196 20.125C17.1196 19.7283 17.4416 19.4062 17.8383 19.4062H17.839C17.839 19.0095 18.1607 18.6875 18.5574 18.6875C18.9542 18.6875 19.2758 19.0095 19.2758 19.4062C19.2758 20.199 18.6311 20.8438 17.8383 20.8438Z" fill="white"/>
<path d="M5.1617 20.8438C4.36892 20.8438 3.7242 20.199 3.7242 19.4062C3.7242 19.0095 4.0462 18.6875 4.44295 18.6875C4.8397 18.6875 5.1617 19.0095 5.1617 19.4062V19.407C5.55845 19.407 5.88045 19.7286 5.88045 20.1254C5.88045 20.5221 5.55881 20.8438 5.1617 20.8438Z" fill="white"/>
<path d="M11.5 17.6748C11.1032 17.6748 10.7812 17.3528 10.7812 16.9561V14.4735C10.7812 14.0768 11.1032 13.7548 11.5 13.7548C11.8967 13.7548 12.2187 14.0768 12.2187 14.4735V16.9561C12.2187 17.3528 11.8967 17.6748 11.5 17.6748Z" fill="white"/>
<path d="M4.44295 20.1251C4.0462 20.1251 3.7242 19.8031 3.7242 19.4063V9.14795C3.7242 8.7512 4.0462 8.4292 4.44295 8.4292C4.8397 8.4292 5.1617 8.7512 5.1617 9.14795V19.4063C5.1617 19.8031 4.84006 20.1251 4.44295 20.1251Z" fill="white"/>
<path d="M18.5571 20.1251C18.1603 20.1251 17.8383 19.8031 17.8383 19.4063V9.14795C17.8383 8.7512 18.1603 8.4292 18.5571 8.4292C18.9538 8.4292 19.2758 8.7512 19.2758 9.14795V19.4063C19.2758 19.8031 18.9538 20.1251 18.5571 20.1251Z" fill="white"/>
<path d="M15.4208 9.14789C15.024 9.14789 14.702 8.82589 14.702 8.42914V6.79578C14.702 5.06 13.2358 3.59375 11.5 3.59375C9.76457 3.59375 8.29868 5.06036 8.29868 6.79578V8.42914C8.29868 8.82589 7.97668 9.14789 7.57993 9.14789C7.18318 9.14789 6.86118 8.82589 6.86118 8.42914V6.79578C6.86118 4.28087 8.98544 2.15625 11.5 2.15625C14.0149 2.15625 16.1395 4.28087 16.1395 6.79578V8.42914C16.1395 8.82625 15.8179 9.14789 15.4208 9.14789Z" fill="white"/>
<path d="M17.8383 9.14795H5.1617C4.76495 9.14795 4.44295 8.82595 4.44295 8.4292C4.44295 8.03245 4.76495 7.71045 5.1617 7.71045H17.8379C18.2347 7.71045 18.5567 8.03245 18.5567 8.4292C18.5567 8.82595 18.235 9.14795 17.8383 9.14795Z" fill="white"/>
<path d="M17.8383 20.8438H5.1617C4.76495 20.8438 4.44295 20.5217 4.44295 20.125C4.44295 19.7282 4.76495 19.4062 5.1617 19.4062H17.8379C18.2347 19.4062 18.5567 19.7282 18.5567 20.125C18.5567 20.5217 18.235 20.8438 17.8383 20.8438Z" fill="white"/>
</svg>
