<svg width="24" height="24" viewBox="0 0 24 24" fill="none" xmlns="http://www.w3.org/2000/svg">
<path d="M4.90569 18.2858C4.86219 18.2858 4.81756 18.282 4.77294 18.2738C4.36494 18.201 4.09344 17.8114 4.16656 17.4034C4.57644 15.1118 5.93356 13.2923 7.89031 12.411C9.18331 11.829 10.7549 11.5586 12.4252 11.6291C14.3418 11.7098 15.8617 12.141 17.0714 12.9469C18.5669 14.0055 19.5674 15.6334 19.8337 17.4251C19.8944 17.8346 19.6117 18.216 19.2018 18.2771C18.7934 18.3383 18.4109 18.0551 18.3498 17.6453C18.1436 16.2563 17.3681 14.9944 16.2221 14.1833C15.2647 13.5458 13.9964 13.1966 12.3622 13.1276C10.9169 13.0665 9.58719 13.2923 8.50644 13.779C7.00831 14.4536 5.96469 15.8708 5.64331 17.6674C5.57844 18.0308 5.26231 18.2858 4.90569 18.2858Z" fill="black"/>
<path d="M11.9753 13.1186C11.6055 13.1186 11.2376 13.0684 10.8825 12.9686C8.84888 12.3983 7.55775 10.3219 7.94213 8.24213C8.31938 6.20063 10.2724 4.69463 12.3795 4.88888C14.4791 5.082 16.1231 6.88613 16.1231 8.99663C16.1231 9.50025 16.0331 9.993 15.8554 10.461C15.2516 12.0506 13.692 13.1186 11.9753 13.1186ZM12.0094 6.372C10.7573 6.372 9.64275 7.29338 9.417 8.51513C9.17213 9.83963 9.99338 11.1615 11.2871 11.5245C11.5106 11.5871 11.742 11.6186 11.9749 11.6186C13.0733 11.6186 14.0689 10.9395 14.4525 9.9285C14.5658 9.63113 14.6228 9.31763 14.6228 8.99663C14.6228 7.65338 13.5769 6.5055 12.2419 6.38288C12.1643 6.37538 12.0866 6.372 12.0094 6.372Z" fill="black"/>
<path d="M11.9733 21.7425C11.973 21.7425 11.973 21.7425 11.9726 21.7425C11.1202 21.7425 10.2746 21.6315 9.45972 21.4121C5.94822 20.4679 3.19834 17.5586 2.45434 14.001C1.69684 10.3766 3.09596 6.56663 6.01872 4.29451C7.70884 2.98088 9.83997 2.25751 12.0202 2.25751C13.5296 2.25751 15.0285 2.60851 16.3552 3.27188C19.6312 4.91101 21.7485 8.33551 21.7485 11.9966C21.7485 14.9839 20.3388 17.8631 17.9778 19.6984C16.2817 21.0165 14.1487 21.7425 11.9733 21.7425ZM12.0202 3.75751C10.1718 3.75751 8.36734 4.36876 6.93934 5.47913C4.46547 7.40176 3.28159 10.6268 3.92284 13.6943C4.55209 16.7036 6.87859 19.1648 9.84934 19.9639C10.5371 20.1488 11.2515 20.2429 11.973 20.2429H11.9733C13.8176 20.2429 15.6228 19.629 17.0572 18.5141C19.0552 16.9609 20.2485 14.5241 20.2485 11.9966C20.2485 8.89876 18.4571 6.00076 15.6843 4.61363C14.565 4.05338 13.2978 3.75751 12.0202 3.75751Z" fill="black"/>
</svg>
