<svg width="24" height="24" viewBox="0 0 24 24" fill="none" xmlns="http://www.w3.org/2000/svg">
<path d="M11.7453 14.589C11.743 14.589 11.7408 14.589 11.7385 14.589C11.3245 14.5852 10.9915 14.2466 10.9953 13.8322L10.9987 13.4572C10.9987 13.4358 10.9998 13.4141 11.002 13.3927C11.1059 12.3018 11.83 11.6332 12.4124 11.0958C12.6097 10.9136 12.7964 10.7415 12.9554 10.5618C13.1493 10.3432 13.4305 9.89546 13.1347 9.35509C12.7938 8.73109 11.9613 8.55446 11.3144 8.70259C10.6387 8.85709 10.3897 9.43421 10.3012 9.76421C10.1939 10.1643 9.78253 10.4017 9.38241 10.2948C8.98228 10.1876 8.74491 9.77621 8.85178 9.37609C9.15066 8.25971 9.92616 7.48159 10.9792 7.24046C12.3963 6.91684 13.8235 7.48946 14.4502 8.63509C14.9718 9.58909 14.8289 10.7085 14.077 11.5567C13.8682 11.7922 13.645 11.9985 13.429 12.1976C12.8909 12.6945 12.5545 13.0267 12.4975 13.5063L12.4945 13.845C12.4915 14.2578 12.1563 14.589 11.7453 14.589Z" fill="black"/>
<path d="M11.745 16.8375C11.55 16.8375 11.355 16.7587 11.2162 16.62C11.0737 16.4812 10.995 16.2862 10.995 16.0875C10.995 15.8925 11.0737 15.6975 11.2162 15.5587C11.4937 15.2812 11.9962 15.2812 12.2737 15.5587C12.4162 15.6975 12.495 15.8925 12.495 16.0875C12.495 16.2862 12.4162 16.4775 12.2775 16.62C12.135 16.7587 11.9437 16.8375 11.745 16.8375Z" fill="black"/>
<path d="M11.9711 21.7489C11.118 21.7489 10.2723 21.6379 9.45745 21.4185C5.94595 20.4739 3.19645 17.565 2.45283 14.0074C1.69495 10.383 3.0937 6.57299 6.01683 4.30086C7.70658 2.98724 9.8377 2.26349 12.018 2.26349C13.5273 2.26349 15.0262 2.61449 16.353 3.27786C19.6293 4.91699 21.7462 8.34149 21.7462 12.0026C21.7462 14.9899 20.3366 17.8691 17.9756 19.7044C16.2798 21.0229 14.1472 21.7489 11.9711 21.7489ZM12.0183 3.76349C10.17 3.76349 8.36545 4.37474 6.93783 5.48511C4.46395 7.40811 3.2797 10.6327 3.92133 13.7002C4.55058 16.7096 6.8767 19.1707 9.84745 19.9699C10.5352 20.1547 11.25 20.2489 11.9711 20.2489H11.9715C13.8157 20.2489 15.621 19.635 17.0553 18.5201C19.0537 16.9669 20.2466 14.5305 20.2466 12.0026C20.2466 8.90474 18.4552 6.00674 15.6825 4.61961C14.5627 4.05974 13.296 3.76349 12.0183 3.76349Z" fill="black"/>
</svg>
