<svg width="252" height="35" viewBox="0 0 252 35" fill="none" xmlns="http://www.w3.org/2000/svg">
<path d="M17.696 28.519C15.4146 28.519 13.3861 28.1685 11.6104 27.4674C9.86158 26.7664 8.44256 25.7798 7.35333 24.5076C6.27091 23.2094 5.55496 21.6905 5.20548 19.951C4.88284 18.2114 4.99019 16.316 5.52753 14.2649C6.07167 12.1878 6.95738 10.2925 8.18465 8.57887C9.44556 6.8393 10.9539 5.33341 12.7097 4.06119C14.4723 2.763 16.4117 1.7634 18.5278 1.06238C20.6707 0.361363 22.8829 0.0108532 25.1643 0.0108532C27.4725 0.0108532 29.501 0.361363 31.2499 1.06238C32.9987 1.7634 34.4143 2.763 35.4967 4.06119C36.586 5.33341 37.2919 6.8393 37.6145 8.57887C37.9708 10.2925 37.8769 12.1878 37.3327 14.2649C36.7954 16.316 35.8963 18.2114 34.6354 19.951C33.4013 21.6905 31.9029 23.2094 30.1403 24.5076C28.3845 25.7798 26.4486 26.7664 24.3325 27.4674C22.2164 28.1685 20.0042 28.519 17.696 28.519ZM25.2728 34.7892C23.9577 34.7892 22.7705 34.6594 21.7112 34.3997C20.6452 34.1661 19.6502 33.7636 18.7262 33.1924C17.8291 32.6212 16.9361 31.8293 16.0473 30.8168C15.1516 29.8301 14.1864 28.5969 13.1516 27.1169L23.5871 24.7802C23.9796 25.7409 24.336 26.4808 24.6562 27.0001C24.9764 27.5194 25.3241 27.8829 25.6991 28.0906C26.101 28.2983 26.5837 28.4021 27.1474 28.4021C28.543 28.4021 29.9978 27.8179 31.5117 26.6496L34.3938 31.323C31.7755 33.6338 28.7352 34.7892 25.2728 34.7892ZM19.6447 21.0804C20.5304 21.0804 21.3898 20.9246 22.2229 20.613C23.0829 20.3015 23.8695 19.8601 24.5828 19.2889C25.3297 18.6917 25.9731 17.9777 26.5128 17.1469C27.0593 16.2901 27.472 15.3294 27.7509 14.2649C28.0298 13.2004 28.117 12.2527 28.0126 11.4219C27.915 10.5651 27.6457 9.85109 27.2049 9.27988C26.7977 8.68272 26.2457 8.22836 25.549 7.91679C24.8791 7.60523 24.1013 7.44945 23.2156 7.44945C22.3299 7.44945 21.457 7.60523 20.5971 7.91679C19.7639 8.22836 18.9739 8.68272 18.227 9.27988C17.5137 9.85109 16.8838 10.5651 16.3373 11.4219C15.7975 12.2527 15.3882 13.2004 15.1094 14.2649C14.8305 15.3294 14.7399 16.2901 14.8375 17.1469C14.9419 17.9777 15.1977 18.6917 15.6049 19.2889C16.0457 19.8601 16.6011 20.3015 17.271 20.613C17.9677 20.9246 18.759 21.0804 19.6447 21.0804ZM43.3534 27.8958L41.477 0.63398H51.2602L52.5174 23.6508H47.6057L61.3653 0.63398H70.1017L71.2784 23.6508H66.5681L80.2069 0.63398H89.2251L73.0651 27.8958H62.8793L61.9395 9.04621H64.6772L53.5391 27.8958H43.3534ZM84.1931 27.8958L91.335 0.63398H100.836L93.6944 27.8958H84.1931ZM98.2683 27.8958L105.41 0.63398H113.221L123.207 17.2248H119.583L123.93 0.63398H133.189L126.048 27.8958H118.237L108.251 11.3051H111.874L107.528 27.8958H98.2683ZM130.625 27.8958L137.767 0.63398H145.578L155.564 17.2248H151.94L156.287 0.63398H165.547L158.405 27.8958H150.594L140.608 11.3051H144.232L139.885 27.8958H130.625ZM176.168 10.7598H188.729L186.995 17.3806H174.433L176.168 10.7598ZM174.139 20.9635H188.23L186.414 27.8958H162.983L170.125 0.63398H193.032L191.216 7.56628H177.649L174.139 20.9635ZM190.072 27.8958L197.213 0.63398H210.781C213.411 0.63398 215.57 1.0494 217.258 1.88024C218.973 2.71107 220.15 3.9054 220.788 5.46322C221.434 6.99508 221.481 8.81254 220.93 10.9156C220.379 13.0187 219.38 14.8361 217.932 16.368C216.49 17.8739 214.698 19.0292 212.555 19.8341C210.438 20.639 208.065 21.0414 205.435 21.0414H197.141L202.358 17.2637L199.573 27.8958H190.072ZM206.94 27.8958L202.617 17.9647H212.682L217.086 27.8958H206.94ZM202.093 18.2763L198.957 14.1091H206.647C207.962 14.1091 209.003 13.8235 209.77 13.2523C210.564 12.6811 211.09 11.9022 211.348 10.9156C211.607 9.92898 211.489 9.15007 210.994 8.57887C210.527 8.00767 209.635 7.72206 208.32 7.72206H200.63L205.949 3.5549L202.093 18.2763ZM230.414 28.519C228.052 28.519 225.839 28.2593 223.774 27.7401C221.709 27.2208 220.074 26.5457 218.87 25.7149L223.684 19.0163C224.829 19.7692 226.159 20.3794 227.674 20.8467C229.222 21.2881 230.775 21.5088 232.331 21.5088C233.244 21.5088 233.969 21.4568 234.506 21.353C235.077 21.2232 235.51 21.0544 235.806 20.8467C236.109 20.613 236.301 20.3404 236.383 20.0288C236.512 19.5355 236.332 19.1461 235.843 18.8605C235.354 18.5749 234.664 18.3412 233.772 18.1595C232.914 17.9518 231.962 17.744 230.916 17.5363C229.877 17.3027 228.841 17.0041 227.809 16.6406C226.804 16.2771 225.91 15.7968 225.127 15.1996C224.371 14.6024 223.837 13.8235 223.525 12.8629C223.22 11.8763 223.258 10.656 223.638 9.20199C224.081 7.51436 224.965 5.9825 226.292 4.60642C227.652 3.20438 229.407 2.08795 231.557 1.25711C233.734 0.426272 236.272 0.0108532 239.171 0.0108532C241.077 0.0108532 242.904 0.205581 244.654 0.595035C246.404 0.98449 247.912 1.58165 249.177 2.38653L244.574 9.04621C243.355 8.37116 242.132 7.86486 240.906 7.52734C239.706 7.18981 238.489 7.02105 237.254 7.02105C236.341 7.02105 235.596 7.09894 235.019 7.25472C234.441 7.4105 233.997 7.61821 233.688 7.87785C233.405 8.13748 233.223 8.42308 233.141 8.73465C233.019 9.20199 233.202 9.57847 233.691 9.86407C234.187 10.1237 234.867 10.3444 235.732 10.5261C236.624 10.7079 237.592 10.9026 238.638 11.1103C239.711 11.318 240.75 11.6036 241.756 11.9671C242.761 12.3306 243.641 12.8109 244.398 13.4081C245.181 14.0053 245.728 14.7842 246.04 15.7448C246.352 16.7055 246.321 17.8998 245.947 19.3278C245.511 20.9895 244.614 22.5214 243.253 23.9234C241.927 25.2995 240.185 26.4159 238.028 27.2727C235.878 28.1035 233.34 28.519 230.414 28.519Z" fill="white"/>
</svg>
