<svg width="23" height="23" viewBox="0 0 23 23" fill="none" xmlns="http://www.w3.org/2000/svg">
<path d="M16.8119 20.8438H9.0433C8.64655 20.8438 8.32455 20.5217 8.32455 20.125C8.32455 19.7282 8.64655 19.4062 9.0433 19.4062H16.8119C17.2087 19.4062 17.5307 19.7282 17.5307 20.125C17.5307 20.5217 17.209 20.8438 16.8119 20.8438Z" fill="white"/>
<path d="M16.8119 20.8438C16.4152 20.8438 16.0932 20.5217 16.0932 20.125C16.0932 19.7283 16.4152 19.4062 16.8119 19.4062C17.1472 19.4062 17.4408 19.1123 17.4408 18.7773C17.4408 18.4424 17.1472 18.1484 16.8119 18.1484C16.4152 18.1484 16.0932 17.8264 16.0932 17.4297C16.0932 17.0329 16.4152 16.7109 16.8119 16.7109C17.9515 16.7109 18.8783 17.6381 18.8783 18.7773C18.8783 19.9166 17.9515 20.8438 16.8119 20.8438Z" fill="white"/>
<path d="M13.529 10.8215C13.4377 10.8215 13.345 10.8039 13.2555 10.7672C12.8886 10.6159 12.7136 10.1958 12.8649 9.82889C13.3979 8.53478 13.6473 7.11165 13.5847 5.71297C13.5671 5.31622 13.8744 4.98056 14.2708 4.96295C14.6632 4.94031 15.0032 5.25225 15.0208 5.649C15.0923 7.2554 14.8062 8.8902 14.1935 10.3766C14.0796 10.654 13.8115 10.8215 13.529 10.8215Z" fill="white"/>
<path d="M18.2501 18.1484C17.8534 18.1484 17.5314 17.8264 17.5314 17.4297C17.5314 17.0329 17.8534 16.7109 18.2501 16.7109C18.5854 16.7109 18.879 16.417 18.879 16.082C18.879 15.7471 18.5854 15.4531 18.2501 15.4531C17.8534 15.4531 17.5314 15.1311 17.5314 14.7344C17.5314 14.3376 17.8534 14.0156 18.2501 14.0156C19.3897 14.0156 20.3165 14.9428 20.3165 16.082C20.3165 17.2213 19.3897 18.1484 18.2501 18.1484Z" fill="white"/>
<path d="M18.7773 15.4531C18.3806 15.4531 18.0586 15.1311 18.0586 14.7344C18.0586 14.3376 18.3806 14.0156 18.7773 14.0156C19.1126 14.0156 19.4062 13.7217 19.4062 13.3867C19.4062 13.0518 19.1126 12.7578 18.7773 12.7578C18.3806 12.7578 18.0586 12.4358 18.0586 12.0391C18.0586 11.6423 18.3806 11.3203 18.7773 11.3203C19.9169 11.3203 20.8438 12.2475 20.8438 13.3867C20.8438 14.5259 19.9169 15.4531 18.7773 15.4531Z" fill="white"/>
<path d="M17.1602 12.7578C16.7634 12.7578 16.4414 12.4358 16.4414 12.0391C16.4414 11.6423 16.7634 11.3203 17.1602 11.3203C17.4955 11.3203 17.7891 11.0263 17.7891 10.6914C17.7891 10.3565 17.4955 10.0625 17.1602 10.0625C16.7634 10.0625 16.4414 9.7405 16.4414 9.34375C16.4414 8.947 16.7634 8.625 17.1602 8.625C18.2997 8.625 19.2266 9.55219 19.2266 10.6914C19.2266 11.8306 18.2997 12.7578 17.1602 12.7578Z" fill="white"/>
<path d="M14.7416 20.8438C13.602 20.8438 12.6752 19.9166 12.6752 18.7773C12.6752 17.6381 13.602 16.7109 14.7416 16.7109C15.1383 16.7109 15.4603 17.0329 15.4603 17.4297C15.4603 17.8264 15.1383 18.1484 14.7416 18.1484C14.4063 18.1484 14.1127 18.4424 14.1127 18.7773C14.1127 19.1123 14.4063 19.4062 14.7416 19.4062C15.1383 19.4062 15.4603 19.7283 15.4603 20.125C15.4603 20.5217 15.1383 20.8438 14.7416 20.8438Z" fill="white"/>
<path d="M18.7773 12.7578H13.3939C12.9972 12.7578 12.6752 12.4358 12.6752 12.0391C12.6752 11.6423 12.9972 11.3203 13.3939 11.3203H18.7773C19.1741 11.3203 19.4961 11.6423 19.4961 12.0391C19.4961 12.4358 19.1741 12.7578 18.7773 12.7578Z" fill="white"/>
<path d="M18.7773 15.4531H13.3939C12.9972 15.4531 12.6752 15.1311 12.6752 14.7344C12.6752 14.3376 12.9972 14.0156 13.3939 14.0156H18.7773C19.1741 14.0156 19.4961 14.3376 19.4961 14.7344C19.4961 15.1311 19.1741 15.4531 18.7773 15.4531Z" fill="white"/>
<path d="M14.0677 18.1484C12.9282 18.1484 12.0013 17.2213 12.0013 16.082C12.0013 14.9428 12.9282 14.0156 14.0677 14.0156C14.4645 14.0156 14.7865 14.3376 14.7865 14.7344C14.7865 15.1311 14.4645 15.4531 14.0677 15.4531C13.7324 15.4531 13.4388 15.7471 13.4388 16.082C13.4388 16.417 13.7324 16.7109 14.0677 16.7109C14.4645 16.7109 14.7865 17.0329 14.7865 17.4297C14.7865 17.8264 14.4645 18.1484 14.0677 18.1484Z" fill="white"/>
<path d="M18.2501 18.1484H14.0677C13.671 18.1484 13.349 17.8264 13.349 17.4297C13.349 17.0329 13.671 16.7109 14.0677 16.7109H18.2505C18.6472 16.7109 18.9692 17.0329 18.9692 17.4297C18.9692 17.8264 18.6472 18.1484 18.2501 18.1484Z" fill="white"/>
<path d="M14.7416 12.7578C13.602 12.7578 12.6752 11.8306 12.6752 10.6914C12.6752 9.55219 13.602 8.625 14.7416 8.625C15.1383 8.625 15.4603 8.947 15.4603 9.34375C15.4603 9.7405 15.1383 10.0625 14.7416 10.0625C14.4063 10.0625 14.1127 10.3565 14.1127 10.6914C14.1127 11.0263 14.4063 11.3203 14.7416 11.3203C15.1383 11.3203 15.4603 11.6423 15.4603 12.0391C15.4603 12.4358 15.1383 12.7578 14.7416 12.7578Z" fill="white"/>
<path d="M17.1602 10.0625H14.7416C14.3448 10.0625 14.0228 9.7405 14.0228 9.34375C14.0228 8.947 14.3448 8.625 14.7416 8.625H17.1602C17.5569 8.625 17.8789 8.947 17.8789 9.34375C17.8789 9.7405 17.5569 10.0625 17.1602 10.0625Z" fill="white"/>
<path d="M13.3939 15.4531C12.2543 15.4531 11.3275 14.5259 11.3275 13.3867C11.3275 12.2475 12.2543 11.3203 13.3939 11.3203C13.7907 11.3203 14.1127 11.6423 14.1127 12.0391C14.1127 12.4358 13.7907 12.7578 13.3939 12.7578C13.0586 12.7578 12.765 13.0518 12.765 13.3867C12.765 13.7217 13.0586 14.0156 13.3939 14.0156C13.7907 14.0156 14.1127 14.3376 14.1127 14.7344C14.1127 15.1311 13.7907 15.4531 13.3939 15.4531Z" fill="white"/>
<path d="M14.302 6.39976C13.92 6.39976 13.602 6.09896 13.5847 5.71336C13.5563 5.0769 13.2394 4.48357 12.7161 4.08575C12.1921 3.68792 11.5349 3.54201 10.9139 3.68504C10.5282 3.77453 10.1412 3.53339 10.0521 3.14598C9.96294 2.75929 10.2044 2.37332 10.5911 2.2842C11.6308 2.04449 12.7215 2.28456 13.5854 2.94078C14.4497 3.59771 14.973 4.58456 15.0208 5.64867C15.0388 6.04542 14.7315 6.38143 14.3351 6.39904C14.324 6.3994 14.3128 6.39976 14.302 6.39976Z" fill="white"/>
<path d="M6.57549 13.0597C6.17874 13.0597 5.85674 12.7377 5.85674 12.341C5.85674 11.1303 6.56039 10.0054 7.6493 9.47605C8.00652 9.30212 8.43597 9.4509 8.61027 9.80776C8.78348 10.165 8.63506 10.5948 8.2782 10.7684C7.68056 11.0591 7.29424 11.6761 7.29424 12.3406C7.29424 12.7377 6.97224 13.0597 6.57549 13.0597Z" fill="white"/>
<path d="M6.57549 18.3763C6.17874 18.3763 5.85674 18.0543 5.85674 17.6575V12.3409C5.85674 11.9442 6.17874 11.6222 6.57549 11.6222C6.97224 11.6222 7.29424 11.9442 7.29424 12.3409V17.6575C7.29424 18.0546 6.97224 18.3763 6.57549 18.3763Z" fill="white"/>
<path d="M10.4697 8.01407C10.392 8.01407 10.3126 8.00149 10.2354 7.97454C9.86017 7.84516 9.66072 7.43584 9.79045 7.06101C10.0413 6.33363 10.1509 5.57499 10.116 4.80629L10.0345 3.01732C10.0165 2.62057 10.3234 2.28455 10.7198 2.26659C11.1111 2.24754 11.4522 2.55516 11.4705 2.95191L11.5521 4.74124C11.5949 5.69215 11.4594 6.63048 11.1492 7.52963C11.0465 7.8272 10.7679 8.01407 10.4697 8.01407Z" fill="white"/>
<path d="M7.96411 10.8412C7.69782 10.8412 7.44194 10.6925 7.31724 10.4369C7.14402 10.0797 7.29244 9.64991 7.6493 9.47634C8.66202 8.98363 9.42246 8.12581 9.7901 7.06098C9.91947 6.68579 10.3284 6.4867 10.7043 6.61643C11.0795 6.74581 11.2786 7.15514 11.1489 7.53032C10.6555 8.95812 9.63593 10.1081 8.27821 10.7686C8.17686 10.8179 8.06977 10.8412 7.96411 10.8412Z" fill="white"/>
<path d="M9.04331 20.8437C7.28597 20.8437 5.85674 19.4145 5.85674 17.6578C5.85674 17.2611 6.17874 16.9391 6.57549 16.9391C6.97224 16.9391 7.29424 17.2611 7.29424 17.6578C7.29424 18.622 8.07911 19.4062 9.04331 19.4062C9.44006 19.4062 9.76206 19.7282 9.76206 20.125C9.76206 20.5217 9.44042 20.8437 9.04331 20.8437Z" fill="white"/>
<path d="M4.72506 20.0527H2.875C2.47825 20.0527 2.15625 19.7307 2.15625 19.334C2.15625 18.9372 2.47825 18.6152 2.875 18.6152H4.72506C5.12181 18.6152 5.44381 18.9372 5.44381 19.334C5.44381 19.7307 5.12217 20.0527 4.72506 20.0527Z" fill="white"/>
<path d="M4.72507 20.0528C4.32832 20.0528 4.00632 19.7308 4.00632 19.3341C4.00632 18.9373 4.32832 18.6153 4.72507 18.6153C5.34894 18.6153 5.85638 18.1075 5.85638 17.4836C5.85638 17.0869 6.17838 16.7649 6.57513 16.7649C6.97188 16.7649 7.29388 17.0869 7.29388 17.4836C7.29424 18.9003 6.14172 20.0528 4.72507 20.0528Z" fill="white"/>
<path d="M4.72506 11.3828H2.875C2.47825 11.3828 2.15625 11.0608 2.15625 10.6641C2.15625 10.2673 2.47825 9.94531 2.875 9.94531H4.72506C5.12181 9.94531 5.44381 10.2673 5.44381 10.6641C5.44381 11.0608 5.12217 11.3828 4.72506 11.3828Z" fill="white"/>
<path d="M6.57548 13.2336C6.17873 13.2336 5.85673 12.9116 5.85673 12.5149C5.85673 11.8906 5.34929 11.3832 4.72542 11.3832C4.32867 11.3832 4.00667 11.0612 4.00667 10.6644C4.00667 10.2677 4.32867 9.94568 4.72542 9.94568C6.14172 9.94568 7.29423 11.0982 7.29423 12.5149C7.29423 12.9116 6.97223 13.2336 6.57548 13.2336Z" fill="white"/>
<path d="M2.875 20.0527C2.47825 20.0527 2.15625 19.7307 2.15625 19.334V10.6641C2.15625 10.2673 2.47825 9.94531 2.875 9.94531C3.27175 9.94531 3.59375 10.2673 3.59375 10.6641V19.334C3.59375 19.7311 3.27175 20.0527 2.875 20.0527Z" fill="white"/>
</svg>
