<svg width="24" height="24" viewBox="0 0 24 24" fill="none" xmlns="http://www.w3.org/2000/svg">
<path d="M12.1939 16.4902C12.1939 16.4902 12.1943 16.4902 12.1939 16.4902C11.0899 16.4902 10.0335 16.0965 9.21904 15.381C7.67217 14.0227 7.24579 11.7172 8.20654 9.89921C8.97642 8.44272 10.5473 7.50146 12.2085 7.50146C12.5727 7.50146 12.9353 7.54646 13.2863 7.63421C15.2573 8.12884 16.6875 9.96446 16.6875 11.9988C16.6875 13.455 15.9773 14.8278 14.7885 15.6712C14.0337 16.2071 13.1363 16.4902 12.1939 16.4902ZM12.2085 9.00146C11.0963 9.00146 10.0459 9.62884 9.53292 10.6001C8.89279 11.8113 9.17742 13.3481 10.209 14.2537C10.7494 14.7285 11.4544 14.9898 12.1939 14.9898C12.8239 14.9898 13.4205 14.8023 13.9204 14.448C14.7139 13.8855 15.1875 12.9697 15.1875 11.9988C15.1875 10.6425 14.2343 9.41884 12.9207 9.08922C12.6889 9.03109 12.4493 9.00146 12.2085 9.00146Z" fill="black"/>
<path fill-rule="evenodd" clip-rule="evenodd" d="M13.9062 3.93C13.9591 3.94088 14.0116 3.9465 14.0634 3.9465C14.4099 3.9465 14.7211 3.705 14.7961 3.3525C14.8827 2.94713 14.624 2.54888 14.219 2.46263C12.8705 2.17538 11.5047 2.17538 10.1562 2.46263C9.75122 2.54888 9.49285 2.9475 9.5791 3.3525C9.66498 3.7575 10.061 4.01588 10.469 3.93C11.6094 3.68738 12.7659 3.68738 13.9062 3.93ZM4.22893 7.72991C4.3553 7.81166 4.49668 7.85066 4.63655 7.85066C4.88255 7.85066 5.12293 7.73029 5.26655 7.50866C5.90105 6.53029 6.71893 5.71241 7.6973 5.07791C8.04455 4.85254 8.14393 4.38829 7.91818 4.04066C7.69243 3.69341 7.22893 3.59366 6.88055 3.81979C5.72443 4.56979 4.75805 5.53654 4.00805 6.69266C3.78268 7.04029 3.88168 7.50454 4.22893 7.72991ZM17.0862 20.2992C16.8942 20.2992 16.7025 20.2261 16.5559 20.0794L15.2993 18.8228C14.9659 18.9749 14.6216 19.1026 14.2706 19.2041C14.2013 19.2244 14.1311 19.2337 14.0621 19.2337C13.7366 19.2337 13.437 19.0204 13.3421 18.6919C13.2266 18.294 13.4561 17.8781 13.854 17.763C14.2804 17.6396 14.6944 17.4682 15.0848 17.253C15.242 17.1665 15.4169 17.1422 15.5808 17.1721C15.6808 17.1902 15.7779 17.2286 15.8653 17.2875C15.909 17.3168 15.9499 17.3509 15.9871 17.3896L17.6164 19.0189C17.9093 19.3118 17.9093 19.7866 17.6164 20.0794C17.4698 20.2261 17.2778 20.2992 17.0862 20.2992ZM18.0022 10.4617C17.9791 10.4158 17.9604 10.3672 17.947 10.3165C17.824 9.89573 17.6542 9.48715 17.4416 9.10162C17.2726 8.79494 17.3409 8.4212 17.5856 8.19228L19.2075 6.57036C19.5004 6.27749 19.9752 6.27749 20.268 6.57036C20.5609 6.86324 20.5609 7.33799 20.268 7.63087L19.0116 8.88731C19.0845 9.04729 19.1518 9.20976 19.2133 9.37427H20.9904C21.4044 9.37427 21.7404 9.71027 21.7404 10.1243C21.7404 10.5383 21.4044 10.8743 20.9904 10.8743H18.6721C18.5124 10.8743 18.3642 10.8242 18.2425 10.739C18.1426 10.6693 18.0591 10.575 18.0022 10.4617ZM10.3129 19.2337C10.2439 19.2337 10.1737 19.2244 10.104 19.2041C9.5711 19.05 9.05361 18.8359 8.5661 18.567C8.2031 18.3671 8.07111 17.9107 8.27098 17.5481C8.47085 17.1851 8.92761 17.0535 9.28986 17.253C9.68023 17.4682 10.0946 17.6396 10.5206 17.763C10.9189 17.8781 11.148 18.294 11.0325 18.6919C10.938 19.0204 10.6384 19.2337 10.3129 19.2337Z" fill="black"/>
<path fill-rule="evenodd" clip-rule="evenodd" d="M19.1085 7.50866C19.2522 7.73029 19.4929 7.85066 19.7385 7.85066C19.8784 7.85066 20.0198 7.81166 20.1462 7.72991C20.4934 7.50454 20.5928 7.04029 20.367 6.69266C19.617 5.53616 18.6507 4.56979 17.4945 3.81979C17.1878 3.62088 16.7922 3.67412 16.548 3.92617L15.2995 5.1747C14.9661 5.02266 14.6218 4.89515 14.2709 4.79365C13.8712 4.67815 13.4568 4.90803 13.342 5.3059C13.2265 5.70377 13.4557 6.11965 13.8539 6.23477C14.2728 6.3561 14.6805 6.52383 15.0652 6.73406C15.1405 6.77866 15.2219 6.80891 15.3055 6.82483C15.3522 6.83377 15.3991 6.83815 15.4458 6.83815L15.4668 6.83785C15.6096 6.83403 15.7515 6.78973 15.8737 6.70479C15.9166 6.67518 15.9566 6.64088 15.9931 6.60213L17.1714 5.42382C17.9338 6.00041 18.5839 6.69967 19.1085 7.50866ZM7.20398 18.5739C6.44151 17.9973 5.79149 17.2981 5.26684 16.4891C5.04109 16.1419 4.57722 16.0425 4.22922 16.2682C3.88197 16.4936 3.78259 16.9579 4.00834 17.3055C4.75786 18.4612 5.72348 19.4271 6.87862 20.1769C7.00292 20.2585 7.14596 20.2992 7.28921 20.2992C7.44276 20.2992 7.59654 20.2522 7.72704 20.1581C7.76238 20.1327 7.79579 20.104 7.82679 20.0721L9.45859 18.4403C9.521 18.3779 9.57011 18.3072 9.60592 18.2318C9.57781 18.3106 9.5625 18.3954 9.5625 18.4838V20.7836C9.55465 21.0901 9.7365 21.372 10.0183 21.4916C10.0673 21.5126 10.1189 21.5285 10.1726 21.5386C10.8414 21.6799 11.5143 21.7503 12.1875 21.7503C12.8603 21.7503 13.5328 21.68 14.2012 21.5388C14.2732 21.5254 14.3416 21.5016 14.4048 21.4691C14.484 21.4286 14.5541 21.3748 14.6129 21.3112C14.7158 21.2001 14.7855 21.0578 14.8061 20.9001C14.8109 20.8644 14.813 20.8281 14.8125 20.7915V18.4838C14.8125 18.3945 14.7969 18.3089 14.7683 18.2295C14.8042 18.3058 14.8536 18.3773 14.9167 18.4403L16.5558 20.0794C16.7024 20.2261 16.894 20.2992 17.086 20.2992C17.2777 20.2992 17.4697 20.2261 17.6163 20.0794C17.9092 19.7866 17.9092 19.3118 17.6163 19.0189L15.9772 17.3798C15.6843 17.0869 15.2096 17.0869 14.9167 17.3798C14.7043 17.5922 14.6459 17.9001 14.7415 18.165C14.6216 17.9103 14.3626 17.7338 14.0625 17.7338C13.6485 17.7338 13.3125 18.0698 13.3125 18.4838V20.1719C12.564 20.2756 11.811 20.2756 11.0625 20.1719V18.4838C11.0625 18.0698 10.7265 17.7338 10.3125 17.7338C10.0134 17.7338 9.75499 17.9092 9.63461 18.1626C9.72897 17.8983 9.6703 17.5915 9.45859 17.3798C9.16572 17.0869 8.69097 17.0869 8.39809 17.3798L7.20398 18.5739Z" fill="black"/>
<path fill-rule="evenodd" clip-rule="evenodd" d="M14.0625 6.26478C13.6485 6.26478 13.3125 5.92878 13.3125 5.51478V3.19653C13.3125 2.78253 13.6485 2.44653 14.0625 2.44653C14.4765 2.44653 14.8125 2.78253 14.8125 3.19653V5.51478C14.8125 5.92878 14.4765 6.26478 14.0625 6.26478ZM6.92884 9.10973C6.71946 9.49122 6.55185 9.89476 6.42986 10.3099C6.34726 10.6342 6.05327 10.8743 5.70302 10.8743H4.01399C3.91033 11.6228 3.91035 12.3757 4.01405 13.1243H5.66174C5.97967 13.106 6.27982 13.294 6.39971 13.5962C6.41028 13.6226 6.41939 13.6498 6.42693 13.6776C6.55004 14.0997 6.72019 14.5095 6.93339 14.8962C7.03536 15.0812 7.05095 15.2906 6.99356 15.4779C6.97844 15.5274 6.95808 15.5757 6.93248 15.6218C6.89621 15.6874 6.84989 15.7479 6.79426 15.8009L5.16749 17.4277C5.02124 17.5743 4.82924 17.6474 4.63724 17.6474C4.44524 17.6474 4.25361 17.5743 4.10699 17.4277C3.81411 17.1348 3.81411 16.6601 4.10699 16.3672L5.36352 15.1107C5.29067 14.9509 5.22342 14.7886 5.16199 14.6243H3.38477C3.19965 14.6243 3.03013 14.5571 2.89927 14.4458C2.82294 14.3811 2.75914 14.3008 2.71327 14.2085C2.68296 14.1478 2.66065 14.0824 2.64772 14.0137C2.36484 12.6753 2.36515 11.3183 2.64865 9.97998C2.65372 9.95398 2.66014 9.92847 2.66782 9.90352C2.76755 9.57667 3.07566 9.36063 3.4135 9.37427H5.16165C5.22315 9.20977 5.29047 9.04731 5.36343 8.88731L4.10699 7.63087C3.81411 7.33799 3.81411 6.86324 4.10699 6.57036C4.39986 6.27749 4.87461 6.27749 5.16749 6.57036L6.79072 8.19361C6.85931 8.25811 6.91396 8.33402 6.9533 8.41664C6.97067 8.45302 6.98494 8.49051 6.9961 8.52872C7.05235 8.72117 7.02993 8.93172 6.92884 9.10973ZM16.4565 19.9571C16.6001 20.1787 16.8408 20.2991 17.0865 20.2991C17.2267 20.2991 17.3677 20.2601 17.4941 20.1783C18.6427 19.4332 19.6041 18.4741 20.352 17.3279C20.5395 17.061 20.5327 16.6992 20.3315 16.4392C20.3099 16.4112 20.2861 16.3845 20.2603 16.3595L19.0114 15.1106C19.0843 14.9508 19.1516 14.7886 19.213 14.6243H20.9904C21.3579 14.6243 21.6639 14.3595 21.728 14.0104C22.0111 12.6691 22.0097 11.309 21.7238 9.96787C21.6376 9.56249 21.2397 9.30374 20.8339 9.39037C20.4289 9.47662 20.1706 9.87524 20.2568 10.2802C20.4574 11.2235 20.4922 12.1773 20.361 13.1243H18.7113C18.3726 13.1058 18.0547 13.3207 17.9538 13.6581L17.9507 13.6687C17.8274 14.0935 17.6563 14.5064 17.4416 14.8962C17.3404 15.0797 17.3243 15.2874 17.3802 15.4735C17.3958 15.526 17.4174 15.5771 17.4448 15.6258C17.4806 15.6897 17.5261 15.7488 17.5805 15.8007L18.7623 16.9825C18.1857 17.745 17.4864 18.3951 16.6773 18.9198C16.3301 19.1452 16.2307 19.6095 16.4565 19.9571ZM8.9291 6.83816C8.9193 6.83816 8.90952 6.83797 8.89975 6.83759C8.70761 6.83005 8.52168 6.74866 8.38562 6.60591L6.75896 4.97925C6.46609 4.68638 6.46609 4.21163 6.75896 3.91875C7.05184 3.62588 7.52659 3.62588 7.81946 3.91875L9.07565 5.17494C9.23559 5.102 9.39803 5.03466 9.5625 4.97314V3.19653C9.5625 2.78253 9.8985 2.44653 10.3125 2.44653C10.7265 2.44653 11.0625 2.78253 11.0625 3.19653V5.48493C11.0735 5.75699 10.9343 6.01501 10.702 6.15571C10.6392 6.19402 10.5702 6.22335 10.497 6.2419C10.0836 6.36342 9.68208 6.53009 9.30271 6.73812C9.23998 6.77432 9.17317 6.80069 9.10451 6.81723C9.0464 6.83131 8.98753 6.83816 8.9291 6.83816Z" fill="black"/>
</svg>
