<svg width="23" height="23" viewBox="0 0 23 23" fill="none" xmlns="http://www.w3.org/2000/svg">
<path d="M11.5 12.2188C11.1032 12.2188 10.7812 11.8967 10.7812 11.5V8.26562C10.7812 7.86887 11.1032 7.54688 11.5 7.54688C11.8967 7.54688 12.2188 7.86887 12.2188 8.26562V11.5C12.2188 11.8967 11.8967 12.2188 11.5 12.2188Z" fill="white"/>
<path d="M14.7344 12.2188H11.5C11.1032 12.2188 10.7812 11.8967 10.7812 11.5C10.7812 11.1032 11.1032 10.7812 11.5 10.7812H14.7344C15.1311 10.7812 15.4531 11.1032 15.4531 11.5C15.4531 11.8967 15.1311 12.2188 14.7344 12.2188Z" fill="white"/>
<path d="M13.3199 18.459C13.0011 18.459 12.7097 18.2451 12.6252 17.922C12.5246 17.5382 12.7542 17.1451 13.1384 17.0448C15.0639 16.5406 16.6775 15.1455 17.4548 13.3131C17.6097 12.9476 18.0309 12.7772 18.3975 12.9318C18.763 13.087 18.9333 13.5086 18.7784 13.874C17.8282 16.1137 15.856 17.8189 13.5024 18.4349C13.4413 18.4514 13.3802 18.459 13.3199 18.459Z" fill="white"/>
<path d="M4.88282 8.69905C4.78938 8.69905 4.69415 8.68072 4.60251 8.64191C4.23703 8.48666 4.06668 8.06511 4.22157 7.69926C5.51065 4.66003 8.59049 2.72336 11.8827 2.88831C14.8947 3.03601 17.6015 4.92453 18.7784 7.69926C18.9333 8.06475 18.763 8.4863 18.3971 8.64155C18.0324 8.79644 17.6097 8.62609 17.4548 8.26025C16.4917 5.99008 14.2769 4.44476 11.8119 4.32366C9.16549 4.19176 6.58303 5.81219 5.54479 8.26025C5.42871 8.53445 5.16278 8.69905 4.88282 8.69905Z" fill="white"/>
<path d="M11.9003 20.1196C10.7112 20.1196 9.74409 19.1526 9.74409 17.9634C9.74409 16.7742 10.7112 15.8071 11.9003 15.8071C13.0895 15.8071 14.0566 16.7742 14.0566 17.9634C14.0566 19.1526 13.0892 20.1196 11.9003 20.1196ZM11.9003 17.2446C11.5108 17.2446 11.1816 17.5738 11.1816 17.9634C11.1816 18.3529 11.5108 18.6821 11.9003 18.6821C12.2899 18.6821 12.6191 18.3529 12.6191 17.9634C12.6191 17.5738 12.2899 17.2446 11.9003 17.2446Z" fill="white"/>
<path d="M19.7135 14.1385C19.6409 14.1385 19.5669 14.1274 19.4939 14.104C19.1159 13.9829 18.9078 13.5782 19.0289 13.2002C19.5349 11.6211 19.5349 9.9525 19.0289 8.37376C18.9078 7.9957 19.1159 7.59104 19.4939 7.46993C19.8723 7.3481 20.2766 7.5569 20.3978 7.93496C20.9961 9.80048 20.9961 11.7731 20.3978 13.639C20.3 13.9441 20.0175 14.1385 19.7135 14.1385Z" fill="white"/>
<path d="M17.0103 13.1492C16.9424 13.1492 16.873 13.1395 16.8044 13.119C16.4238 13.0055 16.2074 12.6051 16.321 12.2249C16.6017 11.284 16.6017 10.2897 16.321 9.34881C16.2074 8.96823 16.4238 8.56825 16.8044 8.45469C17.1846 8.34005 17.5849 8.55747 17.6985 8.93805C18.0593 10.1477 18.0593 11.4264 17.6985 12.636C17.6058 12.9476 17.3201 13.1492 17.0103 13.1492Z" fill="white"/>
<path d="M17.4178 14.0164C17.324 14.0164 17.2288 13.9981 17.1372 13.9589C16.4626 13.6729 16.1115 12.9271 16.321 12.2249C16.4342 11.844 16.8353 11.6273 17.2151 11.7416C17.5957 11.8548 17.8121 12.2551 17.6985 12.6357V12.6364C18.064 12.7917 18.2347 13.2132 18.0794 13.5787C17.9634 13.8522 17.6978 14.0164 17.4178 14.0164Z" fill="white"/>
<path d="M18.7479 14.5806C18.6544 14.5806 18.5592 14.5623 18.4676 14.5234L17.1375 13.9592C16.772 13.8043 16.6013 13.3824 16.7562 13.017C16.9111 12.6515 17.333 12.4808 17.6985 12.6357L19.0285 13.1999C19.394 13.3548 19.5647 13.7767 19.4098 14.1421C19.2938 14.4164 19.0278 14.5806 18.7479 14.5806Z" fill="white"/>
<path d="M19.0228 14.6359C18.833 14.6359 18.644 14.5985 18.4676 14.5234C18.1021 14.3685 17.9317 13.9466 18.0866 13.5811C18.2408 13.2178 18.6584 13.0471 19.0228 13.1977C19.1421 12.8196 19.5475 12.6133 19.9259 12.7308C20.3047 12.8498 20.5178 13.2559 20.3992 13.6347C20.2799 14.0156 20.0003 14.3315 19.6323 14.5018C19.439 14.591 19.2305 14.6359 19.0228 14.6359Z" fill="white"/>
<path d="M19.7132 8.87338C19.4113 8.87338 19.1306 8.68148 19.0311 8.37996C18.6659 8.5327 18.2415 8.35696 18.0888 7.99112C17.9357 7.62456 18.1049 7.20157 18.4715 7.04848C18.8413 6.89395 19.2639 6.90257 19.6319 7.0722C19.9974 7.24074 20.2767 7.5552 20.3981 7.9347C20.5192 8.31276 20.3108 8.71742 19.9331 8.83853C19.8598 8.86224 19.7857 8.87338 19.7132 8.87338Z" fill="white"/>
<path d="M17.4185 8.99512C17.1386 8.99512 16.8727 8.83053 16.7566 8.55704C16.6017 8.19156 16.772 7.76965 17.1375 7.6144L18.4676 7.05018C18.8334 6.89565 19.255 7.06599 19.4102 7.43112C19.5651 7.7966 19.3947 8.21851 19.0293 8.37376L17.6992 8.93798C17.6072 8.97679 17.512 8.99512 17.4185 8.99512Z" fill="white"/>
<path d="M17.0096 9.86236C16.7002 9.86236 16.4145 9.66039 16.3214 9.34845C16.1119 8.64587 16.463 7.90053 17.1375 7.61446C17.5037 7.45957 17.9245 7.62992 18.0798 7.99576C18.2347 8.36125 18.0643 8.78315 17.6985 8.93804H17.6981C17.8113 9.31862 17.5954 9.7186 17.2151 9.83217C17.1465 9.85265 17.0775 9.86236 17.0096 9.86236Z" fill="white"/>
<path d="M3.28648 14.1385C2.98245 14.1385 2.69998 13.9441 2.60223 13.639C2.00423 11.7731 2.00423 9.80084 2.60223 7.93496C2.72334 7.5569 3.12872 7.3481 3.50606 7.46993C3.88412 7.59104 4.0922 7.9957 3.97109 8.37376C3.46509 9.9525 3.46509 11.6214 3.97109 13.2002C4.0922 13.5782 3.88412 13.9829 3.50606 14.104C3.43311 14.1274 3.35908 14.1385 3.28648 14.1385Z" fill="white"/>
<path d="M5.9897 13.1492C5.68028 13.1492 5.39422 12.9476 5.30114 12.6357C4.94033 11.426 4.94033 10.1473 5.30114 8.93768C5.41435 8.5571 5.81433 8.33968 6.19527 8.45432C6.57585 8.56788 6.79219 8.96823 6.67863 9.34845C6.39795 10.2893 6.39795 11.2837 6.67863 12.2245C6.79219 12.6051 6.57585 13.0051 6.19527 13.1187C6.12663 13.1399 6.05763 13.1492 5.9897 13.1492Z" fill="white"/>
<path d="M5.58217 14.0164C5.30258 14.0164 5.03628 13.8521 4.9202 13.5783C4.76495 13.2128 4.93529 12.7913 5.30114 12.636L5.3015 12.6357C5.18793 12.2551 5.40428 11.8551 5.7845 11.7415C6.16615 11.6276 6.56506 11.8443 6.67826 12.2249C6.88778 12.9271 6.53703 13.6728 5.86212 13.9589C5.7712 13.9981 5.67597 14.0164 5.58217 14.0164Z" fill="white"/>
<path d="M4.25213 14.5806C3.97217 14.5806 3.70624 14.416 3.59016 14.1421C3.43527 13.7767 3.60561 13.3548 3.97145 13.1999L5.3015 12.6357C5.66735 12.4808 6.08889 12.6515 6.24378 13.017C6.39867 13.3824 6.22833 13.8043 5.86249 13.9592L4.53244 14.5234C4.4408 14.5623 4.34556 14.5806 4.25213 14.5806Z" fill="white"/>
<path d="M3.9772 14.6359C3.77199 14.6359 3.56607 14.592 3.37488 14.5043C3.00617 14.3358 2.72442 14.0203 2.60223 13.6386C2.48112 13.2605 2.68956 12.8559 3.06726 12.7348C3.44388 12.6144 3.84567 12.8196 3.96893 13.1933C4.33334 13.0384 4.75632 13.2117 4.91193 13.5764C5.06754 13.9415 4.89863 14.3667 4.53351 14.5223C4.3567 14.5985 4.16731 14.6359 3.9772 14.6359Z" fill="white"/>
<path d="M3.29188 8.87766C3.22036 8.87766 3.14741 8.86688 3.07554 8.8446C2.6964 8.72673 2.48257 8.32027 2.60044 7.94113C2.71904 7.5602 2.99755 7.24431 3.36519 7.0736C3.73607 6.90182 4.16121 6.89284 4.53208 7.0506C4.89757 7.20549 5.06827 7.6274 4.91338 7.99288C4.75921 8.35621 4.34161 8.52727 3.97757 8.3767C3.88161 8.68324 3.59771 8.87766 3.29188 8.87766Z" fill="white"/>
<path d="M5.58144 8.99512C5.48801 8.99512 5.39277 8.97679 5.30113 8.93798L3.97109 8.37376C3.6056 8.21851 3.43526 7.79696 3.59015 7.43112C3.7454 7.06599 4.16694 6.89565 4.53279 7.05018L5.86284 7.6144C6.22832 7.76965 6.39866 8.1912 6.24377 8.55704C6.12734 8.83089 5.8614 8.99512 5.58144 8.99512Z" fill="white"/>
<path d="M5.99005 9.86236C5.92213 9.86236 5.85277 9.85266 5.78449 9.83217C5.40391 9.71897 5.18757 9.31863 5.30113 8.93805V8.93733C4.93565 8.78244 4.76494 8.36089 4.91983 7.99541C5.07472 7.62992 5.49663 7.45958 5.86212 7.61447C6.53666 7.90053 6.88777 8.64624 6.67826 9.34846C6.58554 9.66075 6.29983 9.86236 5.99005 9.86236Z" fill="white"/>
</svg>
