<svg width="23" height="23" viewBox="0 0 23 23" fill="none" xmlns="http://www.w3.org/2000/svg">
<path d="M10.6404 13.3593C10.4564 13.3593 10.2724 13.2892 10.1322 13.1487C9.85154 12.868 9.85154 12.4131 10.1322 12.1324L14.7901 7.47454C15.0704 7.19387 15.5261 7.19387 15.8064 7.47454C16.0871 7.75521 16.0871 8.21018 15.8064 8.49085L11.1485 13.1487C11.0084 13.2892 10.8244 13.3593 10.6404 13.3593Z" fill="white"/>
<path d="M10.6404 13.3593C10.4564 13.3593 10.2727 13.2892 10.1322 13.1487L7.78405 10.8009C7.50338 10.5202 7.50338 10.0653 7.78405 9.7846C8.06436 9.50393 8.51969 9.50393 8.80036 9.7846L11.1485 12.1324C11.4292 12.4131 11.4292 12.868 11.1485 13.1487C11.0084 13.2892 10.8244 13.3593 10.6404 13.3593Z" fill="white"/>
<path d="M11.5 20.8436C11.4252 20.8436 11.3494 20.8318 11.2747 20.8073C6.68042 19.2919 3.59375 15.0232 3.59375 10.1849C3.59375 9.78819 3.91575 9.46619 4.3125 9.46619C4.70925 9.46619 5.03125 9.78819 5.03125 10.1849C5.03125 14.4011 7.72117 18.1214 11.725 19.4421C12.1019 19.5664 12.3068 19.9729 12.1824 20.3499C12.0829 20.6521 11.8019 20.8436 11.5 20.8436Z" fill="white"/>
<path d="M4.3125 10.9038C3.91575 10.9038 3.59375 10.5818 3.59375 10.185V5.10022C3.59375 4.70347 3.91575 4.38147 4.3125 4.38147C4.70925 4.38147 5.03125 4.70347 5.03125 5.10022V10.185C5.03125 10.5821 4.70925 10.9038 4.3125 10.9038Z" fill="white"/>
<path d="M4.31178 5.81894C3.95887 5.81894 3.65089 5.55875 3.60057 5.19902C3.54595 4.80586 3.82015 4.44289 4.21367 4.38827C6.64161 4.05081 8.98509 3.32524 11.1794 2.23166C11.5349 2.05485 11.9665 2.19896 12.1433 2.55438C12.3204 2.9098 12.1756 3.34105 11.8206 3.51822C9.48642 4.68116 6.99379 5.45274 4.41132 5.81211C4.3779 5.81678 4.34448 5.81894 4.31178 5.81894Z" fill="white"/>
<path d="M11.5 20.8436C11.1985 20.8436 10.9171 20.6521 10.8175 20.3499C10.6932 19.9729 10.898 19.5664 11.275 19.4421C15.2788 18.1217 17.9687 14.4015 17.9687 10.1849C17.9687 9.78819 18.2907 9.46619 18.6875 9.46619C19.0842 9.46619 19.4062 9.78819 19.4062 10.1849C19.4062 15.0228 16.3196 19.2919 11.725 20.8073C11.6502 20.8321 11.5747 20.8436 11.5 20.8436Z" fill="white"/>
<path d="M18.6875 10.9038C18.2907 10.9038 17.9688 10.5818 17.9688 10.185V5.10022C17.9688 4.70347 18.2907 4.38147 18.6875 4.38147C19.0842 4.38147 19.4062 4.70347 19.4062 5.10022V10.185C19.4062 10.5821 19.0842 10.9038 18.6875 10.9038Z" fill="white"/>
<path d="M18.6882 5.81894C18.6551 5.81894 18.6217 5.81678 18.5883 5.81211C16.0058 5.45274 13.5132 4.68116 11.1791 3.51822C10.824 3.34105 10.6792 2.9098 10.8564 2.55438C11.0332 2.19896 11.4648 2.05485 11.8202 2.23166C14.0145 3.32488 16.358 4.05081 18.786 4.38827C19.1791 4.44289 19.4537 4.80622 19.399 5.19902C19.3495 5.55875 19.0415 5.81894 18.6882 5.81894Z" fill="white"/>
</svg>
