<svg width="293" height="99" viewBox="0 0 293 99" fill="none" xmlns="http://www.w3.org/2000/svg">
<path d="M55.5948 24.0131H71.289C78.4635 24.0131 82.0508 27.6362 83.396 29.4477L67.7018 45.2984L55.5948 24.0131Z" fill="white"/>
<path d="M26 38.5052V52.0916L34.9681 43.034L26.4484 74.7354H41.6942L42.2547 72.4711L54.2496 24.0131H41.6942L26 38.5052Z" fill="white"/>
<path d="M41.6942 74.7354H60.9757L76.6699 60.6962C78.4635 65.376 83.9341 74.7354 91.4673 74.7354H109.852L92.8125 45.2984L116.13 24.0131H93.7093L42.2547 72.4711L41.6942 74.7354Z" fill="white"/>
<path fill-rule="evenodd" clip-rule="evenodd" d="M116.13 64.591L126.031 24.0131H153.483C171.215 24.0131 170.405 42.3094 161.314 48.0157C171.035 54.1748 161.944 74.7354 141.152 74.7354H121.89L116.13 64.591ZM150.063 35.9691H138.092L136.202 43.2151H147.633C154.473 43.2151 156.453 35.9691 150.063 35.9691ZM133.591 53.9031L131.521 62.7795H144.212C152.493 62.7795 154.743 53.9031 146.192 53.9031H133.591Z" fill="#0075FF"/>
<path d="M167.632 74.7354L179.802 24.0131H219.135L216.31 35.788H191.971L190.168 43.034H214.648L211.802 54.8088H187.464L185.19 62.8352H214.648L211.802 74.7354H167.632Z" fill="#0075FF"/>
<path d="M239.191 74.7486H224.301L233.721 36.0034H219.135L222.022 24H266.997L264.11 35.6995H248.764L239.191 74.7486Z" fill="#0075FF"/>
</svg>
